<svg width="50" height="50" viewBox="0 0 50 50" fill="none" xmlns="http://www.w3.org/2000/svg">
<path d="M38.1836 46.8751C36.2773 46.8751 33.5996 46.1856 29.5898 43.9454C24.7139 41.211 20.9424 38.6866 16.0928 33.8497C11.417 29.1768 9.1416 26.1514 5.95703 20.3565C2.35938 13.8135 2.97266 10.3839 3.6582 8.91804C4.47461 7.16609 5.67969 6.11823 7.2373 5.0782C8.12202 4.49854 9.05827 4.00165 10.0342 3.59382C10.1318 3.55183 10.2227 3.51179 10.3037 3.47566C10.7871 3.25788 11.5195 2.92878 12.4473 3.28034C13.0664 3.51277 13.6191 3.98835 14.4844 4.84284C16.2588 6.59284 18.6836 10.4903 19.5781 12.4044C20.1787 13.6944 20.5762 14.546 20.5771 15.501C20.5771 16.6192 20.0146 17.4815 19.332 18.4122C19.2041 18.587 19.0771 18.754 18.9541 18.9161C18.2109 19.8926 18.0479 20.1749 18.1553 20.6788C18.373 21.6915 19.9971 24.7061 22.666 27.3692C25.335 30.0323 28.2627 31.5538 29.2793 31.7706C29.8047 31.8829 30.0928 31.713 31.1006 30.9434C31.2451 30.8331 31.3936 30.7188 31.5488 30.6046C32.5898 29.8301 33.4121 29.2823 34.5039 29.2823H34.5098C35.46 29.2823 36.2734 29.6944 37.6211 30.3741C39.3789 31.2608 43.3936 33.6544 45.1543 35.4307C46.0107 36.294 46.4883 36.8448 46.7217 37.463C47.0732 38.3936 46.7422 39.1231 46.5264 39.6114C46.4902 39.6925 46.4502 39.7813 46.4082 39.88C45.9971 40.8541 45.4973 41.7884 44.915 42.671C43.8769 44.2237 42.8252 45.4258 41.0693 46.2432C40.1677 46.6698 39.181 46.8858 38.1836 46.8751Z" fill="#444444"/>
</svg>
