<svg width="35" height="35" viewBox="0 0 35 35" fill="none" xmlns="http://www.w3.org/2000/svg">
<path fill-rule="evenodd" clip-rule="evenodd" d="M0 8.75C0 6.42936 0.921872 4.20376 2.56282 2.56282C4.20376 0.921872 6.42936 0 8.75 0H26.25C28.5706 0 30.7962 0.921872 32.4372 2.56282C34.0781 4.20376 35 6.42936 35 8.75V26.25C35 28.5706 34.0781 30.7962 32.4372 32.4372C30.7962 34.0781 28.5706 35 26.25 35H8.75C6.42936 35 4.20376 34.0781 2.56282 32.4372C0.921872 30.7962 0 28.5706 0 26.25V8.75ZM13.025 7.7925C12.8196 7.79217 12.6161 7.83234 12.4263 7.91072C12.2364 7.9891 12.0639 8.10414 11.9185 8.24926C11.7732 8.39439 11.6579 8.56674 11.5792 8.75648C11.5005 8.94621 11.46 9.1496 11.46 9.355V26.925C11.46 27.3394 11.6246 27.7368 11.9176 28.0299C12.2107 28.3229 12.6081 28.4875 13.0225 28.4875C13.4369 28.4875 13.8343 28.3229 14.1274 28.0299C14.4204 27.7368 14.585 27.3394 14.585 26.925V21.165H20.985C21.6826 21.165 22.3735 21.0276 23.018 20.7606C23.6625 20.4936 24.2482 20.1023 24.7415 19.609C25.2348 19.1157 25.6261 18.53 25.8931 17.8855C26.1601 17.241 26.2975 16.5501 26.2975 15.8525V13.105C26.2975 12.4074 26.1601 11.7165 25.8931 11.072C25.6261 10.4275 25.2348 9.84181 24.7415 9.3485C24.2482 8.85518 23.6625 8.46387 23.018 8.19689C22.3735 7.92991 21.6826 7.7925 20.985 7.7925H13.025ZM20.985 18.0425H14.585V10.9175H20.985C22.1925 10.9175 23.1725 11.8975 23.1725 13.105V15.855C23.1718 16.4347 22.9411 16.9905 22.5309 17.4002C22.1207 17.8099 21.5647 18.0425 20.985 18.0425Z" fill="#444444"/>
</svg>
