<svg width="28" height="28" viewBox="0 0 28 28" fill="none" xmlns="http://www.w3.org/2000/svg">
<path d="M9.93079 2.59717C10.4538 2.43972 11.0168 2.47884 11.5138 2.70557C11.9485 2.90396 12.3073 3.23464 12.5402 3.64795L12.632 3.83057L13.9904 6.8501C14.1832 7.27876 14.2366 7.75749 14.1437 8.21826C14.0508 8.67894 13.8156 9.09902 13.4718 9.41943L11.4054 11.3452L11.4015 11.3481C11.1913 11.5478 11.1396 11.823 11.1349 12.0396C11.13 12.2684 11.1745 12.53 11.254 12.8101C11.394 13.3029 11.6626 13.9264 12.0734 14.6743L12.2579 15.0034C12.775 15.8993 13.2474 16.55 13.6544 16.9702C13.8568 17.1791 14.0602 17.3483 14.2599 17.4585C14.4479 17.5622 14.7125 17.6562 14.9913 17.5728H14.9943L17.7023 16.7446C18.1514 16.6073 18.6321 16.6135 19.0773 16.7632C19.5224 16.9128 19.9098 17.1979 20.1847 17.5786L22.1144 20.2534C22.4333 20.6953 22.5813 21.2382 22.5304 21.7808C22.4794 22.3234 22.2328 22.8298 21.837 23.2046L20.3448 24.6167C19.9275 25.0119 19.4132 25.29 18.8536 25.4214C18.294 25.5528 17.709 25.533 17.1593 25.3647C14.2141 24.463 11.4019 21.7561 8.7218 17.1128C6.03674 12.4641 5.08506 8.64416 5.75793 5.59326C5.88257 5.02885 6.15591 4.50731 6.54895 4.0835C6.89276 3.71284 7.31774 3.42852 7.78918 3.25146L7.99426 3.18213L9.93079 2.59717Z" stroke="white"/>
</svg>
