<svg width="89" height="80" viewBox="0 0 89 80" fill="none" xmlns="http://www.w3.org/2000/svg">
<mask id="path-1-inside-1_70_210" fill="white">
<path d="M88.6457 20.6079L62.0226 79.5112L35.2365 68.4858L61.8595 9.58252L88.6457 20.6079ZM44.256 57.6978L64.0539 65.8472L69.5802 53.6216L49.7814 45.4722L44.256 57.6978ZM51.2883 42.1392L71.0871 50.2876L76.6125 38.063L56.8136 29.9136L51.2883 42.1392ZM58.3215 26.5796L78.1193 34.729L83.6447 22.5034L63.8468 14.354L58.3215 26.5796Z"/>
</mask>
<path d="M88.6457 20.6079L89.5569 21.0198L89.983 20.077L89.0263 19.6832L88.6457 20.6079ZM62.0226 79.5112L61.642 80.436L62.5358 80.8039L62.9339 79.9231L62.0226 79.5112ZM35.2365 68.4858L34.3253 68.074L33.8991 69.0168L34.8559 69.4106L35.2365 68.4858ZM61.8595 9.58252L62.2402 8.65779L61.3464 8.2899L60.9483 9.17066L61.8595 9.58252ZM44.256 57.6978L43.3448 57.2859L42.9187 58.2287L43.8754 58.6225L44.256 57.6978ZM64.0539 65.8472L63.6732 66.7719L64.567 67.1398L64.9651 66.2591L64.0539 65.8472ZM69.5802 53.6216L70.4915 54.0335L70.9177 53.0907L69.9609 52.6969L69.5802 53.6216ZM49.7814 45.4722L50.162 44.5474L49.2682 44.1795L48.8702 45.0603L49.7814 45.4722ZM51.2883 42.1392L50.377 41.7273L49.9509 42.6701L50.9077 43.0639L51.2883 42.1392ZM71.0871 50.2876L70.7065 51.2123L71.6003 51.5802L71.9983 50.6995L71.0871 50.2876ZM76.6125 38.063L77.5237 38.4749L77.9498 37.5321L76.9931 37.1383L76.6125 38.063ZM56.8136 29.9136L57.1943 28.9888L56.3005 28.6209L55.9024 29.5017L56.8136 29.9136ZM58.3215 26.5796L57.4102 26.1677L56.9841 27.1105L57.9408 27.5043L58.3215 26.5796ZM78.1193 34.729L77.7387 35.6537L78.6325 36.0216L79.0306 35.1408L78.1193 34.729ZM83.6447 22.5034L84.556 22.9153L84.982 21.9725L84.0253 21.5787L83.6447 22.5034ZM63.8468 14.354L64.2275 13.4293L63.3337 13.0614L62.9356 13.9422L63.8468 14.354ZM88.6457 20.6079L87.7344 20.196L61.1114 79.0994L62.0226 79.5112L62.9339 79.9231L89.5569 21.0198L88.6457 20.6079ZM62.0226 79.5112L62.4033 78.5865L35.6171 67.5611L35.2365 68.4858L34.8559 69.4106L61.642 80.436L62.0226 79.5112ZM35.2365 68.4858L36.1477 68.8977L62.7708 9.99438L61.8595 9.58252L60.9483 9.17066L34.3253 68.074L35.2365 68.4858ZM61.8595 9.58252L61.4789 10.5072L88.265 21.5326L88.6457 20.6079L89.0263 19.6832L62.2402 8.65779L61.8595 9.58252ZM44.256 57.6978L43.8754 58.6225L63.6732 66.7719L64.0539 65.8472L64.4345 64.9224L44.6367 56.773L44.256 57.6978ZM64.0539 65.8472L64.9651 66.2591L70.4915 54.0335L69.5802 53.6216L68.669 53.2097L63.1427 65.4353L64.0539 65.8472ZM69.5802 53.6216L69.9609 52.6969L50.162 44.5474L49.7814 45.4722L49.4008 46.3969L69.1996 54.5463L69.5802 53.6216ZM49.7814 45.4722L48.8702 45.0603L43.3448 57.2859L44.256 57.6978L45.1673 58.1096L50.6927 45.884L49.7814 45.4722ZM51.2883 42.1392L50.9077 43.0639L70.7065 51.2123L71.0871 50.2876L71.4677 49.3629L51.6688 41.2144L51.2883 42.1392ZM71.0871 50.2876L71.9983 50.6995L77.5237 38.4749L76.6125 38.063L75.7012 37.6511L70.1758 49.8757L71.0871 50.2876ZM76.6125 38.063L76.9931 37.1383L57.1943 28.9888L56.8136 29.9136L56.433 30.8383L76.2318 38.9877L76.6125 38.063ZM56.8136 29.9136L55.9024 29.5017L50.377 41.7273L51.2883 42.1392L52.1995 42.551L57.7249 30.3254L56.8136 29.9136ZM58.3215 26.5796L57.9408 27.5043L77.7387 35.6537L78.1193 34.729L78.5 33.8043L58.7021 25.6549L58.3215 26.5796ZM78.1193 34.729L79.0306 35.1408L84.556 22.9153L83.6447 22.5034L82.7334 22.0916L77.2081 34.3172L78.1193 34.729ZM83.6447 22.5034L84.0253 21.5787L64.2275 13.4293L63.8468 14.354L63.4662 15.2787L83.2641 23.4281L83.6447 22.5034ZM63.8468 14.354L62.9356 13.9422L57.4102 26.1677L58.3215 26.5796L59.2327 26.9914L64.7581 14.7658L63.8468 14.354Z" fill="#D9D9D9" mask="url(#path-1-inside-1_70_210)"/>
<mask id="path-3-inside-2_70_210" fill="white">
<path d="M49.9473 76.3945H13V0H49.9473V76.3945ZM17.8193 47.5234V64.3857H45.1279V47.5234H17.8193ZM17.8193 42.9248H45.1279V26.0615H17.8193V42.9248ZM17.8193 21.4619H45.1279V4.59961H17.8193V21.4619Z"/>
</mask>
<path d="M49.9473 76.3945H13V0H49.9473V76.3945ZM17.8193 47.5234V64.3857H45.1279V47.5234H17.8193ZM17.8193 42.9248H45.1279V26.0615H17.8193V42.9248ZM17.8193 21.4619H45.1279V4.59961H17.8193V21.4619Z" fill="white"/>
<path d="M49.9473 76.3945V77.3945H50.9473V76.3945H49.9473ZM13 76.3945H12V77.3945H13V76.3945ZM13 0V-1H12V0H13ZM49.9473 0H50.9473V-1H49.9473V0ZM17.8193 47.5234V46.5234H16.8193V47.5234H17.8193ZM17.8193 64.3857H16.8193V65.3857H17.8193V64.3857ZM45.1279 64.3857V65.3857H46.1279V64.3857H45.1279ZM45.1279 47.5234H46.1279V46.5234H45.1279V47.5234ZM17.8193 42.9248H16.8193V43.9248H17.8193V42.9248ZM45.1279 42.9248V43.9248H46.1279V42.9248H45.1279ZM45.1279 26.0615H46.1279V25.0615H45.1279V26.0615ZM17.8193 26.0615V25.0615H16.8193V26.0615H17.8193ZM17.8193 21.4619H16.8193V22.4619H17.8193V21.4619ZM45.1279 21.4619V22.4619H46.1279V21.4619H45.1279ZM45.1279 4.59961H46.1279V3.59961H45.1279V4.59961ZM17.8193 4.59961V3.59961H16.8193V4.59961H17.8193ZM49.9473 76.3945V75.3945H13V76.3945V77.3945H49.9473V76.3945ZM13 76.3945H14V0H13H12V76.3945H13ZM13 0V1H49.9473V0V-1H13V0ZM49.9473 0H48.9473V76.3945H49.9473H50.9473V0H49.9473ZM17.8193 47.5234H16.8193V64.3857H17.8193H18.8193V47.5234H17.8193ZM17.8193 64.3857V65.3857H45.1279V64.3857V63.3857H17.8193V64.3857ZM45.1279 64.3857H46.1279V47.5234H45.1279H44.1279V64.3857H45.1279ZM45.1279 47.5234V46.5234H17.8193V47.5234V48.5234H45.1279V47.5234ZM17.8193 42.9248V43.9248H45.1279V42.9248V41.9248H17.8193V42.9248ZM45.1279 42.9248H46.1279V26.0615H45.1279H44.1279V42.9248H45.1279ZM45.1279 26.0615V25.0615H17.8193V26.0615V27.0615H45.1279V26.0615ZM17.8193 26.0615H16.8193V42.9248H17.8193H18.8193V26.0615H17.8193ZM17.8193 21.4619V22.4619H45.1279V21.4619V20.4619H17.8193V21.4619ZM45.1279 21.4619H46.1279V4.59961H45.1279H44.1279V21.4619H45.1279ZM45.1279 4.59961V3.59961H17.8193V4.59961V5.59961H45.1279V4.59961ZM17.8193 4.59961H16.8193V21.4619H17.8193H18.8193V4.59961H17.8193Z" fill="#D9D9D9" mask="url(#path-3-inside-2_70_210)"/>
<rect x="17.8192" y="47.5229" width="27.3091" height="16.8631" fill="white"/>
<rect x="17.8192" y="47.5229" width="27.3091" height="16.8631" fill="white"/>
</svg>
