<svg width="80" height="78" viewBox="0 0 80 78" fill="none" xmlns="http://www.w3.org/2000/svg">
<path d="M43.8047 0.5C44.7272 0.500193 45.5467 1.09451 46.043 2.07812C46.5379 3.05942 46.6749 4.37542 46.2344 5.66113C46.0183 6.29181 45.5238 7.10499 44.8682 7.99512C44.2194 8.8759 43.4387 9.79667 42.6826 10.6357C41.9274 11.4738 41.2015 12.2255 40.6641 12.7676C40.4434 12.9902 40.2539 13.1763 40.1084 13.3193C39.9653 13.1933 39.7813 13.0314 39.5684 12.8369C39.029 12.3444 38.2987 11.6526 37.5332 10.8555C36.7668 10.0575 35.9703 9.15937 35.2969 8.25391C34.6195 7.34311 34.0861 6.45095 33.8203 5.66309C33.2786 4.05755 33.4776 2.76058 34.0176 1.88281C34.5592 1.00237 35.4662 0.500079 36.4502 0.5C37.3934 0.499992 38.1866 1.09577 38.7812 1.78516C39.0717 2.12193 39.2973 2.46086 39.4502 2.7168C39.5263 2.84424 39.5834 2.95018 39.6211 3.02246C39.6399 3.05857 39.6543 3.08653 39.6631 3.10449C39.6674 3.1133 39.67 3.12017 39.6719 3.12402L39.6738 3.12793L40.127 4.10352L40.5811 3.12793C40.5813 3.12737 40.5812 3.12571 40.582 3.12402C40.5839 3.12016 40.5874 3.11336 40.5918 3.10449C40.6006 3.08653 40.615 3.05857 40.6338 3.02246C40.6714 2.95024 40.7287 2.84502 40.8047 2.71777C40.9576 2.46177 41.183 2.12211 41.4736 1.78516C42.0683 1.09577 42.8614 0.5 43.8047 0.5Z" fill="#344E3C" stroke="#344E3C"/>
<path d="M51.9834 21C67.4559 21.0003 80 33.5439 80 49.0166C79.9997 64.489 67.4557 77.032 51.9834 77.0322C47.6958 77.0321 43.6331 76.0666 40 74.3447C36.3666 76.0669 32.3037 77.0322 28.0156 77.0322C12.5432 77.0321 0.000345698 64.4891 0 49.0166C0 33.5438 12.543 21.0001 28.0156 21C32.3034 21.0001 36.3668 21.9636 40 23.6855C43.633 21.9638 47.696 21.0001 51.9834 21ZM28.0156 22C13.0953 22.0001 1 34.0961 1 49.0166C1.00035 63.9368 13.0955 76.0321 28.0156 76.0322C31.9024 76.0322 35.5952 75.2099 38.9326 73.7334C37.8569 73.1882 36.2572 72.236 34.708 70.9609L33.9141 71.1729C32.0317 71.6727 30.0544 71.9414 28.0156 71.9414C15.3546 71.9413 5.09117 61.6777 5.09082 49.0166C5.09082 36.3552 15.3543 26.091 28.0156 26.0908C29.9876 26.0909 31.9022 26.3435 33.7295 26.8125L33.7383 26.7607C37.3649 27.35 39.099 28.8203 40.2471 29.4746L40.1865 29.5801L40.5469 29.8164C46.8032 33.9079 50.9414 40.9787 50.9414 49.0166C50.9412 56.9337 46.9243 63.9089 40.8252 68.0264C42.034 68.7835 43.1497 69.4892 45.0312 70.0166L45.6865 69.4502C51.4112 64.495 55.032 57.1794 55.0322 49.0166C55.0322 40.8531 51.4118 33.5354 45.6865 28.5801L45.2178 28.1748L45.1914 28.207C42.1979 25.6894 41.1485 25.5371 39.7598 24.7812L39.8037 24.6992L39.5723 24.5898C36.0699 22.9298 32.1523 22.0001 28.0156 22ZM51.9834 22C48.0902 22.0001 44.3914 22.8238 41.0498 24.3047C42.0409 24.7698 43.2146 25.304 45.3604 27.0498L46.084 26.8584C47.9671 26.3582 49.9449 26.0909 51.9834 26.0908C64.6446 26.0911 74.9092 36.3553 74.9092 49.0166C74.9088 61.6776 64.6444 71.9411 51.9834 71.9414C50.2171 71.9413 48.497 71.7393 46.8447 71.3604L46.833 71.4346C43.0714 70.8076 41.5634 69.6462 39.7393 68.5303L39.7939 68.4385L39.4521 68.2148C33.1964 64.1234 29.0588 57.0539 29.0586 49.0166C29.0586 41.0949 33.0783 34.1139 39.1836 29.9971C38.2142 29.3839 36.9916 28.5652 34.9424 28.0342L34.3125 28.5801C28.5874 33.5354 24.9678 40.8533 24.9678 49.0166C24.968 57.1793 28.5879 64.495 34.3125 69.4502L34.9883 70.0352L35.0596 69.9531C37.1279 71.7204 39.3585 72.8827 40.1846 73.2129L40.1465 73.3076L40.4287 73.4414C43.9311 75.1013 47.8474 76.0321 51.9834 76.0322C66.9034 76.032 78.9997 63.9368 79 49.0166C79 34.3291 67.2788 22.3787 52.6807 22.0088L51.9834 22ZM28.0156 27.0908C15.9066 27.091 6.09082 36.9075 6.09082 49.0166C6.09117 61.1254 15.9069 70.9413 28.0156 70.9414C29.9663 70.9414 31.858 70.6851 33.6582 70.207C27.7235 65.07 23.968 57.4818 23.9678 49.0166C23.9678 40.5509 27.723 32.9614 33.6582 27.8242C31.8581 27.3462 29.9662 27.0909 28.0156 27.0908ZM51.9834 27.0908C50.0326 27.0909 48.1411 27.3461 46.3408 27.8242C52.2761 32.9614 56.0322 40.5507 56.0322 49.0166C56.032 57.4821 52.2758 65.07 46.3408 70.207C48.1412 70.6852 50.0326 70.9413 51.9834 70.9414C64.0921 70.9411 73.9088 61.1254 73.9092 49.0166C73.9092 36.9075 64.0923 27.0911 51.9834 27.0908ZM39.999 30.6533C34.0133 34.568 30.0586 41.3306 30.0586 49.0166C30.0588 56.7021 34.0138 63.4633 39.999 67.3779C45.9847 63.4634 49.9412 56.7025 49.9414 49.0166C49.9414 41.3303 45.9851 34.568 39.999 30.6533Z" fill="#344E3C"/>
</svg>
