<svg width="75" height="75" viewBox="0 0 75 75" fill="none" xmlns="http://www.w3.org/2000/svg">
<path d="M4.44521 9.2041V19.0352H7.28701V9.2041H8.38271V19.0342H8.88174L10.7216 19.0371H11.2226V18.5371L11.2245 9.2041H12.1894V23.8262C12.1894 24.4878 11.9825 25.0186 11.6229 25.4521C11.257 25.8932 10.7128 26.2563 10.0097 26.5361L9.41299 26.7715L9.08681 26.9004L9.09658 27.251L9.11416 27.8955C9.45134 40.2296 9.78802 52.5636 10.1259 64.8975C9.20049 66.3604 8.33684 66.7941 7.75381 66.7969C7.17211 66.7996 6.30795 66.3822 5.37099 64.9004C5.66057 52.5631 5.94935 40.226 6.24111 27.8887V27.8867L6.25478 27.2471L6.26162 26.9004L5.94033 26.7725L5.3456 26.5342C4.67549 26.2668 4.17319 25.9343 3.83779 25.5127C3.50926 25.0997 3.31038 24.5633 3.31045 23.8252V9.2041H4.44521ZM65.7704 9.36133C66.9045 9.7595 67.9069 10.5964 68.7919 11.8662C70.0318 13.6452 70.9381 16.1974 71.3729 19.0557C72.2455 24.791 71.1598 31.5107 68.1718 35.3447L68.1708 35.3467L67.955 35.626L67.8349 35.7803L67.8524 35.9766L67.8837 36.3262V36.3281L70.5663 64.9131C69.6451 66.355 68.7821 66.7941 68.1903 66.7969C67.5918 66.7996 66.713 66.3656 65.7675 64.8584L65.7704 9.36133ZM37.4999 14.916C43.6221 14.916 49.4941 17.3477 53.8231 21.6768C58.1522 26.0058 60.5839 31.8777 60.5839 38C60.5839 44.1223 58.1522 49.9942 53.8231 54.3232C49.4941 58.6523 43.6221 61.084 37.4999 61.084C31.3779 61.084 25.5067 58.652 21.1776 54.3232C16.8485 49.9942 14.4159 44.1223 14.4159 38C14.4159 31.8777 16.8485 26.0058 21.1776 21.6768C25.5067 17.348 31.3779 14.916 37.4999 14.916Z" stroke="#D9D9D9"/>
</svg>
