<svg width="81" height="78" viewBox="0 0 81 78" fill="none" xmlns="http://www.w3.org/2000/svg">
<path d="M44.2383 0.5C45.2619 0.50008 46.1471 1.11403 46.6748 2.08984C47.2026 3.06616 47.3478 4.37282 46.8789 5.65039C46.6484 6.27832 46.1203 7.09135 45.417 7.98242C44.7218 8.86329 43.8854 9.78382 43.0752 10.623C42.2658 11.4613 41.4871 12.2136 40.9111 12.7559C40.6559 12.9962 40.4396 13.1941 40.2793 13.3408C40.1207 13.2108 39.91 13.0374 39.6621 12.8262C39.084 12.3334 38.301 11.6412 37.4805 10.8438C36.659 10.0454 35.8057 9.1469 35.084 8.24121C34.3576 7.32964 33.7867 6.43833 33.5029 5.65332C32.9255 4.05597 33.1386 2.76949 33.7139 1.89648C34.2936 1.01693 35.2766 0.500009 36.3594 0.5C37.3994 0.500151 38.2604 1.11165 38.8945 1.79785C39.2064 2.13528 39.4477 2.47479 39.6113 2.73047C39.6928 2.85783 39.7546 2.96304 39.7949 3.03516C39.8148 3.07083 39.8295 3.09834 39.8389 3.11621L39.8506 3.13965L40.2988 4.03906L40.7461 3.13965L40.7578 3.11621C40.7672 3.09834 40.7827 3.07096 40.8027 3.03516C40.843 2.96306 40.904 2.85769 40.9854 2.73047C41.1489 2.47482 41.3903 2.13527 41.7021 1.79785C42.3364 1.11156 43.1981 0.5 44.2383 0.5Z" stroke="#D9D9D9"/>
<path d="M52.1943 21C67.7295 21.0002 80.3241 33.5946 80.3242 49.1299C80.324 64.6651 67.7295 77.2586 52.1943 77.2588C47.8892 77.2587 43.8101 76.2895 40.1621 74.5605C36.5141 76.2897 32.4352 77.2587 28.1299 77.2588C12.5945 77.2588 0.000183096 64.6652 0 49.1299C0.000127399 33.5945 12.5945 21 28.1299 21C32.435 21.0001 36.5142 21.9683 40.1621 23.6973C43.8099 21.9685 47.8895 21.0001 52.1943 21ZM28.1299 22C13.1468 22 1.00013 34.1468 1 49.1299C1.00018 64.113 13.1468 76.2588 28.1299 76.2588C32.0347 76.2587 35.7441 75.4322 39.0967 73.9482C38.016 73.4011 36.4057 72.4437 34.8467 71.1602L34.0508 71.3721C32.1612 71.8739 30.1765 72.1435 28.1299 72.1436C15.4195 72.1436 5.11542 61.8402 5.11523 49.1299C5.11536 36.4195 15.4195 26.1152 28.1299 26.1152C30.109 26.1153 32.0303 26.3683 33.8643 26.8389L33.874 26.7852C37.5152 27.3767 39.2562 28.8536 40.4092 29.5107L40.3467 29.6182L40.709 29.8555C46.9896 33.9627 51.1435 41.0609 51.1436 49.1299C51.1434 57.0791 47.109 64.0816 40.9844 68.2148C42.2008 68.9767 43.3218 69.6873 45.2158 70.2178L45.874 69.6494C51.6229 64.6733 55.2587 57.3271 55.2588 49.1299C55.2587 40.9322 51.6234 33.5845 45.874 28.6084L45.4033 28.2012L45.376 28.2344C42.37 25.7063 41.3161 25.5539 39.9219 24.7949L39.9668 24.7109L39.7344 24.6006C36.2174 22.9336 32.2838 22.0001 28.1299 22ZM52.1943 22C48.2829 22.0001 44.5669 22.828 41.21 24.3164C42.2068 24.7843 43.3854 25.32 45.5459 27.0781L46.2715 26.8857C48.162 26.3836 50.1478 26.1153 52.1943 26.1152C64.9045 26.1154 75.2089 36.4196 75.209 49.1299C75.2088 61.8401 64.9045 72.1433 52.1943 72.1436C50.421 72.1435 48.6941 71.941 47.0352 71.5605L47.0234 71.6367C43.2468 71.0073 41.7331 69.8412 39.9014 68.7207L39.958 68.627L39.6143 68.4023C33.3342 64.295 29.1798 57.1984 29.1797 49.1299C29.1798 41.1762 33.2169 34.1666 39.3477 30.0342C38.3731 29.4179 37.1438 28.5945 35.0811 28.0605L34.4482 28.6084C28.6994 33.5844 25.0655 40.9326 25.0654 49.1299C25.0655 57.3268 28.6997 64.6734 34.4482 69.6494L35.127 70.2363L35.2002 70.1523C37.2775 71.9273 39.5172 73.0953 40.3467 73.4268L40.3076 73.5225L40.5908 73.6572C44.108 75.3242 48.0407 76.2587 52.1943 76.2588C67.1772 76.2586 79.324 64.1128 79.3242 49.1299C79.3241 34.3809 67.5539 22.3803 52.8945 22.0088L52.1943 22ZM28.1299 27.1152C15.9718 27.1152 6.11536 36.9718 6.11523 49.1299C6.11542 61.288 15.9718 71.1436 28.1299 71.1436C30.0882 71.1435 31.9867 70.8862 33.7939 70.4062C27.8351 65.2484 24.0655 57.6294 24.0654 49.1299C24.0655 40.63 27.8348 33.0095 33.7939 27.8516C31.9868 27.3717 30.0881 27.1153 28.1299 27.1152ZM52.1943 27.1152C50.2355 27.1153 48.3361 27.3714 46.5283 27.8516C52.4878 33.0095 56.2587 40.6297 56.2588 49.1299C56.2587 57.6296 52.4873 65.2484 46.5283 70.4062C48.3362 70.8864 50.2354 71.1435 52.1943 71.1436C64.3522 71.1433 74.2088 61.2878 74.209 49.1299C74.2089 36.9719 64.3523 27.1154 52.1943 27.1152ZM40.1611 30.6924C34.1512 34.6229 30.1798 41.4129 30.1797 49.1299C30.1798 56.8466 34.1516 63.6349 40.1611 67.5654C46.1711 63.635 50.1434 56.847 50.1436 49.1299C50.1435 41.4124 46.1715 34.6228 40.1611 30.6924Z" fill="#D9D9D9"/>
</svg>
