<svg width="75" height="79" viewBox="0 0 75 79" fill="none" xmlns="http://www.w3.org/2000/svg">
<mask id="path-1-inside-1_239_1158" fill="white">
<path d="M74.6458 20.3357L48.3743 78.4607L21.9426 67.5808L48.2141 9.45581L74.6458 20.3357ZM30.843 56.9343L50.3792 64.9763L55.8323 52.9128L36.2952 44.8708L30.843 56.9343ZM37.7825 41.5808L57.3196 49.6228L62.7717 37.5593L43.2356 29.5173L37.7825 41.5808ZM44.7219 26.2283L64.2581 34.2693L69.7112 22.2058L50.1741 14.1638L44.7219 26.2283Z"/>
</mask>
<path d="M74.6458 20.3357L75.557 20.7476L75.9831 19.8048L75.0264 19.411L74.6458 20.3357ZM48.3743 78.4607L47.9936 79.3854L48.8874 79.7533L49.2855 78.8726L48.3743 78.4607ZM21.9426 67.5808L21.0314 67.1689L20.6053 68.1117L21.562 68.5055L21.9426 67.5808ZM48.2141 9.45581L48.5947 8.53109L47.701 8.16318L47.3029 9.04394L48.2141 9.45581ZM30.843 56.9343L29.9318 56.5225L29.5057 57.4652L30.4624 57.859L30.843 56.9343ZM50.3792 64.9763L49.9985 65.901L50.8923 66.2689L51.2904 65.3882L50.3792 64.9763ZM55.8323 52.9128L56.7435 53.3247L57.1697 52.3819L56.2129 51.9881L55.8323 52.9128ZM36.2952 44.8708L36.6758 43.9461L35.782 43.5782L35.3839 44.459L36.2952 44.8708ZM37.7825 41.5808L36.8712 41.1689L36.4451 42.1117L37.4018 42.5055L37.7825 41.5808ZM57.3196 49.6228L56.9389 50.5475L57.8328 50.9154L58.2308 50.0346L57.3196 49.6228ZM62.7717 37.5593L63.683 37.9712L64.1091 37.0284L63.1524 36.6346L62.7717 37.5593ZM43.2356 29.5173L43.6163 28.5926L42.7225 28.2247L42.3244 29.1054L43.2356 29.5173ZM44.7219 26.2283L43.8107 25.8165L43.3846 26.7592L44.3413 27.153L44.7219 26.2283ZM64.2581 34.2693L63.8774 35.194L64.7712 35.5619L65.1693 34.6812L64.2581 34.2693ZM69.7112 22.2058L70.6224 22.6177L71.0486 21.6749L70.0918 21.2811L69.7112 22.2058ZM50.1741 14.1638L50.5547 13.2391L49.6609 12.8712L49.2628 13.752L50.1741 14.1638ZM74.6458 20.3357L73.7345 19.9238L47.463 78.0488L48.3743 78.4607L49.2855 78.8726L75.557 20.7476L74.6458 20.3357ZM48.3743 78.4607L48.7549 77.536L22.3233 66.6561L21.9426 67.5808L21.562 68.5055L47.9936 79.3854L48.3743 78.4607ZM21.9426 67.5808L22.8539 67.9927L49.1254 9.86768L48.2141 9.45581L47.3029 9.04394L21.0314 67.1689L21.9426 67.5808ZM48.2141 9.45581L47.8335 10.3805L74.2651 21.2604L74.6458 20.3357L75.0264 19.411L48.5947 8.53109L48.2141 9.45581ZM30.843 56.9343L30.4624 57.859L49.9985 65.901L50.3792 64.9763L50.7598 64.0516L31.2237 56.0096L30.843 56.9343ZM50.3792 64.9763L51.2904 65.3882L56.7435 53.3247L55.8323 52.9128L54.921 52.5009L49.4679 64.5644L50.3792 64.9763ZM55.8323 52.9128L56.2129 51.9881L36.6758 43.9461L36.2952 44.8708L35.9145 45.7956L55.4516 53.8376L55.8323 52.9128ZM36.2952 44.8708L35.3839 44.459L29.9318 56.5225L30.843 56.9343L31.7543 57.3462L37.2064 45.2827L36.2952 44.8708ZM37.7825 41.5808L37.4018 42.5055L56.9389 50.5475L57.3196 49.6228L57.7002 48.6981L38.1631 40.6561L37.7825 41.5808ZM57.3196 49.6228L58.2308 50.0346L63.683 37.9712L62.7717 37.5593L61.8605 37.1475L56.4083 49.211L57.3196 49.6228ZM62.7717 37.5593L63.1524 36.6346L43.6163 28.5926L43.2356 29.5173L42.8549 30.4421L62.3911 38.484L62.7717 37.5593ZM43.2356 29.5173L42.3244 29.1054L36.8712 41.1689L37.7825 41.5808L38.6937 41.9927L44.1468 29.9292L43.2356 29.5173ZM44.7219 26.2283L44.3413 27.153L63.8774 35.194L64.2581 34.2693L64.6387 33.3446L45.1025 25.3035L44.7219 26.2283ZM64.2581 34.2693L65.1693 34.6812L70.6224 22.6177L69.7112 22.2058L68.8 21.7939L63.3468 33.8574L64.2581 34.2693ZM69.7112 22.2058L70.0918 21.2811L50.5547 13.2391L50.1741 14.1638L49.7934 15.0885L69.3305 23.1305L69.7112 22.2058ZM50.1741 14.1638L49.2628 13.752L43.8107 25.8165L44.7219 26.2283L45.6332 26.6401L51.0853 14.5756L50.1741 14.1638Z" fill="#344E3C" mask="url(#path-1-inside-1_239_1158)"/>
<mask id="path-3-inside-2_239_1158" fill="white">
<path d="M36.459 75.3848H0V0H36.459V75.3848ZM4.75586 46.8945V63.5342H31.7041V46.8945H4.75586ZM4.75586 42.3574H31.7041V25.7168H4.75586V42.3574ZM4.75586 21.1787H31.7041V4.53809H4.75586V21.1787Z"/>
</mask>
<path d="M36.459 75.3848H0V0H36.459V75.3848ZM4.75586 46.8945V63.5342H31.7041V46.8945H4.75586ZM4.75586 42.3574H31.7041V25.7168H4.75586V42.3574ZM4.75586 21.1787H31.7041V4.53809H4.75586V21.1787Z" fill="#FFFDEF"/>
<path d="M36.459 75.3848V76.3848H37.459V75.3848H36.459ZM0 75.3848H-1V76.3848H0V75.3848ZM0 0V-1H-1V0H0ZM36.459 0H37.459V-1H36.459V0ZM4.75586 46.8945V45.8945H3.75586V46.8945H4.75586ZM4.75586 63.5342H3.75586V64.5342H4.75586V63.5342ZM31.7041 63.5342V64.5342H32.7041V63.5342H31.7041ZM31.7041 46.8945H32.7041V45.8945H31.7041V46.8945ZM4.75586 42.3574H3.75586V43.3574H4.75586V42.3574ZM31.7041 42.3574V43.3574H32.7041V42.3574H31.7041ZM31.7041 25.7168H32.7041V24.7168H31.7041V25.7168ZM4.75586 25.7168V24.7168H3.75586V25.7168H4.75586ZM4.75586 21.1787H3.75586V22.1787H4.75586V21.1787ZM31.7041 21.1787V22.1787H32.7041V21.1787H31.7041ZM31.7041 4.53809H32.7041V3.53809H31.7041V4.53809ZM4.75586 4.53809V3.53809H3.75586V4.53809H4.75586ZM36.459 75.3848V74.3848H0V75.3848V76.3848H36.459V75.3848ZM0 75.3848H1V0H0H-1V75.3848H0ZM0 0V1H36.459V0V-1H0V0ZM36.459 0H35.459V75.3848H36.459H37.459V0H36.459ZM4.75586 46.8945H3.75586V63.5342H4.75586H5.75586V46.8945H4.75586ZM4.75586 63.5342V64.5342H31.7041V63.5342V62.5342H4.75586V63.5342ZM31.7041 63.5342H32.7041V46.8945H31.7041H30.7041V63.5342H31.7041ZM31.7041 46.8945V45.8945H4.75586V46.8945V47.8945H31.7041V46.8945ZM4.75586 42.3574V43.3574H31.7041V42.3574V41.3574H4.75586V42.3574ZM31.7041 42.3574H32.7041V25.7168H31.7041H30.7041V42.3574H31.7041ZM31.7041 25.7168V24.7168H4.75586V25.7168V26.7168H31.7041V25.7168ZM4.75586 25.7168H3.75586V42.3574H4.75586H5.75586V25.7168H4.75586ZM4.75586 21.1787V22.1787H31.7041V21.1787V20.1787H4.75586V21.1787ZM31.7041 21.1787H32.7041V4.53809H31.7041H30.7041V21.1787H31.7041ZM31.7041 4.53809V3.53809H4.75586V4.53809V5.53809H31.7041V4.53809ZM4.75586 4.53809H3.75586V21.1787H4.75586H5.75586V4.53809H4.75586Z" fill="#344E3C" mask="url(#path-3-inside-2_239_1158)"/>
<rect x="4.75562" y="46.8943" width="26.9481" height="16.6402" fill="#FFFDEF"/>
</svg>
