<svg width="73" height="73" viewBox="0 0 73 73" fill="none" xmlns="http://www.w3.org/2000/svg">
<path d="M3.18457 8.96875V19.0352H6.07129V8.96875H7.21582V19.0342L7.71582 19.0352L9.59863 19.0371L10.0996 19.0381V18.5371L10.1016 8.96875H11.1133V23.9541C11.1133 24.6343 10.901 25.1799 10.5312 25.626C10.1549 26.0799 9.59555 26.453 8.87402 26.7402L8.26367 26.9814L7.9375 27.1094L7.94727 27.46L7.96484 28.1201C8.31006 40.7514 8.65507 53.3826 9.00098 66.0137C8.05187 67.516 7.16376 67.9649 6.56055 67.9678C5.95867 67.9705 5.07028 67.5382 4.10938 66.0166C4.40584 53.3821 4.70226 40.7478 5.00098 28.1133V28.1113L5.01367 27.4561L5.02148 27.1104L4.7002 26.9814L4.09082 26.7383C3.40367 26.4641 2.88707 26.1223 2.54199 25.6885C2.20383 25.2632 1.99993 24.7112 2 23.9531V8.96875H3.18457ZM65.9424 9.125C67.1126 9.53154 68.1456 10.3927 69.0566 11.7002C70.3273 13.5239 71.2558 16.1392 71.7012 19.0674C72.5947 24.9423 71.4835 31.8273 68.4219 35.7568L68.4209 35.7578L68.1992 36.0439L68.0791 36.1992L68.0967 36.3945L68.1289 36.7529L68.1299 36.7549L70.876 66.0303C69.9312 67.5108 69.0438 67.9649 68.4316 67.9678C67.8127 67.9708 66.909 67.5222 65.9395 65.9756L65.9424 9.125ZM37.0127 14.8174C43.2833 14.8174 49.2974 17.3099 53.7314 21.7451C58.1653 26.1803 60.6563 32.1955 60.6562 38.4678C60.6562 44.74 58.1653 50.7552 53.7314 55.1904C49.2974 59.6256 43.2833 62.1182 37.0127 62.1182C30.7421 62.1182 24.728 59.6256 20.2939 55.1904C15.8601 50.7552 13.3691 44.74 13.3691 38.4678C13.3691 32.1955 15.8601 26.1803 20.2939 21.7451C24.728 17.3099 30.7421 14.8174 37.0127 14.8174Z" stroke="#344E3C"/>
</svg>
