<svg width="34" height="34" viewBox="0 0 34 34" fill="none" xmlns="http://www.w3.org/2000/svg">
<path d="M19.8333 9.2085H11.3333C10.1597 9.2085 9.20833 10.1599 9.20833 11.3335V25.5002C9.20833 26.6738 10.1597 27.6252 11.3333 27.6252H19.8333C21.0069 27.6252 21.9583 26.6738 21.9583 25.5002V11.3335C21.9583 10.1599 21.0069 9.2085 19.8333 9.2085Z" stroke="black"/>
<path d="M12.0417 8.5C12.0417 7.93641 12.2655 7.39591 12.6641 6.9974C13.0626 6.59888 13.6031 6.375 14.1667 6.375H22.6667C23.2302 6.375 23.7707 6.59888 24.1693 6.9974C24.5678 7.39591 24.7917 7.93641 24.7917 8.5V22.6667C24.7917 23.2303 24.5678 23.7708 24.1693 24.1693C23.7707 24.5678 23.2302 24.7917 22.6667 24.7917" stroke="black"/>
</svg>
