<svg width="30" height="30" viewBox="0 0 30 30" fill="none" xmlns="http://www.w3.org/2000/svg">
<path d="M20.3544 11.526C20.4416 11.6131 20.5107 11.7165 20.5579 11.8303C20.6051 11.9442 20.6294 12.0662 20.6294 12.1894C20.6294 12.3126 20.6051 12.4347 20.5579 12.5485C20.5107 12.6623 20.4416 12.7658 20.3544 12.8528L13.7905 19.4167C13.7034 19.5039 13.6 19.573 13.4862 19.6202C13.3724 19.6674 13.2503 19.6917 13.1271 19.6917C13.0039 19.6917 12.8819 19.6674 12.768 19.6202C12.6542 19.573 12.5508 19.5039 12.4637 19.4167L9.65062 16.6036C9.47468 16.4277 9.37583 16.189 9.37583 15.9402C9.37583 15.6914 9.47468 15.4527 9.65062 15.2768C9.82657 15.1008 10.0652 15.002 10.314 15.002C10.5629 15.002 10.8015 15.1008 10.9775 15.2768L13.1271 17.4276L19.0275 11.526C19.1146 11.4388 19.218 11.3697 19.3319 11.3225C19.4457 11.2753 19.5677 11.251 19.691 11.251C19.8142 11.251 19.9362 11.2753 20.05 11.3225C20.1639 11.3697 20.2673 11.4388 20.3544 11.526ZM27.1925 15.0025C27.1925 17.4135 26.4776 19.7703 25.1381 21.7749C23.7987 23.7795 21.8948 25.342 19.6674 26.2646C17.44 27.1872 14.989 27.4286 12.6244 26.9583C10.2597 26.4879 8.08767 25.3269 6.38287 23.6221C4.67807 21.9173 3.51709 19.7453 3.04673 17.3806C2.57638 15.016 2.81778 12.565 3.74041 10.3376C4.66305 8.11016 6.22547 6.20634 8.2301 4.86688C10.2347 3.52743 12.5915 2.8125 15.0025 2.8125C18.2344 2.81591 21.333 4.10131 23.6184 6.38664C25.9037 8.67197 27.1891 11.7706 27.1925 15.0025ZM25.3171 15.0025C25.3171 12.9625 24.7122 10.9682 23.5788 9.272C22.4454 7.57578 20.8345 6.25373 18.9497 5.47304C17.065 4.69235 14.9911 4.48808 12.9902 4.88608C10.9894 5.28407 9.15149 6.26644 7.70897 7.70896C6.26645 9.15149 5.28407 10.9894 4.88608 12.9902C4.48809 14.9911 4.69235 17.065 5.47304 18.9497C6.25373 20.8345 7.57578 22.4454 9.27201 23.5788C10.9682 24.7122 12.9625 25.3171 15.0025 25.3171C17.7372 25.314 20.3589 24.2263 22.2926 22.2926C24.2263 20.3589 25.314 17.7371 25.3171 15.0025Z" fill="#4D4D4D"/>
</svg>
